<svg width="25" height="25" viewBox="0 0 25 25" fill="none" xmlns="http://www.w3.org/2000/svg">
<mask id="mask0_10_31" style="mask-type:alpha" maskUnits="userSpaceOnUse" x="0" y="0" width="25" height="25">
<rect x="0.476562" y="0.56665" width="24" height="24" fill="#D9D9D9"/>
</mask>
<g mask="url(#mask0_10_31)">
<path d="M5.47656 22.5667C4.92656 22.5667 4.45573 22.3708 4.06406 21.9792C3.6724 21.5875 3.47656 21.1167 3.47656 20.5667V8.56665C3.47656 8.01665 3.6724 7.54582 4.06406 7.15415C4.45573 6.76248 4.92656 6.56665 5.47656 6.56665H7.47656C7.47656 5.18332 7.96406 4.00415 8.93906 3.02915C9.91406 2.05415 11.0932 1.56665 12.4766 1.56665C13.8599 1.56665 15.0391 2.05415 16.0141 3.02915C16.9891 4.00415 17.4766 5.18332 17.4766 6.56665H19.4766C20.0266 6.56665 20.4974 6.76248 20.8891 7.15415C21.2807 7.54582 21.4766 8.01665 21.4766 8.56665V20.5667C21.4766 21.1167 21.2807 21.5875 20.8891 21.9792C20.4974 22.3708 20.0266 22.5667 19.4766 22.5667H5.47656ZM5.47656 20.5667H19.4766V8.56665H5.47656V20.5667ZM12.4766 14.5667C13.8599 14.5667 15.0391 14.0792 16.0141 13.1042C16.9891 12.1292 17.4766 10.95 17.4766 9.56665H15.4766C15.4766 10.4 15.1849 11.1083 14.6016 11.6917C14.0182 12.275 13.3099 12.5667 12.4766 12.5667C11.6432 12.5667 10.9349 12.275 10.3516 11.6917C9.76823 11.1083 9.47656 10.4 9.47656 9.56665H7.47656C7.47656 10.95 7.96406 12.1292 8.93906 13.1042C9.91406 14.0792 11.0932 14.5667 12.4766 14.5667ZM9.47656 6.56665H15.4766C15.4766 5.73332 15.1849 5.02498 14.6016 4.44165C14.0182 3.85832 13.3099 3.56665 12.4766 3.56665C11.6432 3.56665 10.9349 3.85832 10.3516 4.44165C9.76823 5.02498 9.47656 5.73332 9.47656 6.56665Z" fill="white"/>
</g>
</svg>
