<svg width="25" height="25" viewBox="0 0 25 25" fill="none" xmlns="http://www.w3.org/2000/svg">
<mask id="mask0_10_25" style="mask-type:alpha" maskUnits="userSpaceOnUse" x="0" y="0" width="25" height="25">
<rect x="0.476562" y="0.56665" width="24" height="24" fill="#D9D9D9"/>
</mask>
<g mask="url(#mask0_10_25)">
<path d="M12.4766 12.5667C11.3766 12.5667 10.4349 12.175 9.65156 11.3917C8.86823 10.6083 8.47656 9.66665 8.47656 8.56665C8.47656 7.46665 8.86823 6.52498 9.65156 5.74165C10.4349 4.95832 11.3766 4.56665 12.4766 4.56665C13.5766 4.56665 14.5182 4.95832 15.3016 5.74165C16.0849 6.52498 16.4766 7.46665 16.4766 8.56665C16.4766 9.66665 16.0849 10.6083 15.3016 11.3917C14.5182 12.175 13.5766 12.5667 12.4766 12.5667ZM4.47656 20.5667V17.7667C4.47656 17.2 4.6224 16.6792 4.91406 16.2042C5.20573 15.7292 5.59323 15.3667 6.07656 15.1167C7.1099 14.6 8.1599 14.2125 9.22656 13.9542C10.2932 13.6958 11.3766 13.5667 12.4766 13.5667C13.5766 13.5667 14.6599 13.6958 15.7266 13.9542C16.7932 14.2125 17.8432 14.6 18.8766 15.1167C19.3599 15.3667 19.7474 15.7292 20.0391 16.2042C20.3307 16.6792 20.4766 17.2 20.4766 17.7667V20.5667H4.47656ZM6.47656 18.5667H18.4766V17.7667C18.4766 17.5833 18.4307 17.4167 18.3391 17.2667C18.2474 17.1167 18.1266 17 17.9766 16.9167C17.0766 16.4667 16.1682 16.1292 15.2516 15.9042C14.3349 15.6792 13.4099 15.5667 12.4766 15.5667C11.5432 15.5667 10.6182 15.6792 9.70156 15.9042C8.7849 16.1292 7.87656 16.4667 6.97656 16.9167C6.82656 17 6.70573 17.1167 6.61406 17.2667C6.5224 17.4167 6.47656 17.5833 6.47656 17.7667V18.5667ZM12.4766 10.5667C13.0266 10.5667 13.4974 10.3708 13.8891 9.97915C14.2807 9.58748 14.4766 9.11665 14.4766 8.56665C14.4766 8.01665 14.2807 7.54582 13.8891 7.15415C13.4974 6.76248 13.0266 6.56665 12.4766 6.56665C11.9266 6.56665 11.4557 6.76248 11.0641 7.15415C10.6724 7.54582 10.4766 8.01665 10.4766 8.56665C10.4766 9.11665 10.6724 9.58748 11.0641 9.97915C11.4557 10.3708 11.9266 10.5667 12.4766 10.5667Z" fill="white"/>
</g>
</svg>
