<svg width="25" height="25" viewBox="0 0 25 25" fill="none" xmlns="http://www.w3.org/2000/svg">
<mask id="mask0_10_19" style="mask-type:alpha" maskUnits="userSpaceOnUse" x="0" y="0" width="25" height="25">
<rect x="0.476562" y="0.56665" width="24" height="24" fill="#D9D9D9"/>
</mask>
<g mask="url(#mask0_10_19)">
<path d="M20.0766 21.5667L13.7766 15.2667C13.2766 15.6667 12.7016 15.9833 12.0516 16.2167C11.4016 16.45 10.7099 16.5667 9.97656 16.5667C8.1599 16.5667 6.6224 15.9375 5.36406 14.6792C4.10573 13.4208 3.47656 11.8833 3.47656 10.0667C3.47656 8.24998 4.10573 6.71248 5.36406 5.45415C6.6224 4.19582 8.1599 3.56665 9.97656 3.56665C11.7932 3.56665 13.3307 4.19582 14.5891 5.45415C15.8474 6.71248 16.4766 8.24998 16.4766 10.0667C16.4766 10.8 16.3599 11.4917 16.1266 12.1417C15.8932 12.7917 15.5766 13.3667 15.1766 13.8667L21.4766 20.1667L20.0766 21.5667ZM9.97656 14.5667C11.2266 14.5667 12.2891 14.1292 13.1641 13.2542C14.0391 12.3792 14.4766 11.3167 14.4766 10.0667C14.4766 8.81665 14.0391 7.75415 13.1641 6.87915C12.2891 6.00415 11.2266 5.56665 9.97656 5.56665C8.72656 5.56665 7.66406 6.00415 6.78906 6.87915C5.91406 7.75415 5.47656 8.81665 5.47656 10.0667C5.47656 11.3167 5.91406 12.3792 6.78906 13.2542C7.66406 14.1292 8.72656 14.5667 9.97656 14.5667Z" fill="white"/>
</g>
</svg>
