<?xml version="1.0" encoding="UTF-8"?>
<svg xmlns="http://www.w3.org/2000/svg" xmlns:xlink="http://www.w3.org/1999/xlink" width="210pt" height="301.9pt" viewBox="0 0 210 301.9" version="1.1">
<defs>
<clipPath id="clip1">
  <path d="M 0 36 L 210 36 L 210 301.898438 L 0 301.898438 Z M 0 36 "/>
</clipPath>
</defs>
<g id="surface1">
<g clip-path="url(#clip1)" clip-rule="nonzero">
<path style=" stroke:none;fill-rule:evenodd;fill:rgb(0%,42.358398%,19.213867%);fill-opacity:1;" d="M 105 36.222656 C 78.234375 56.289063 41.105469 72.496094 0 87.222656 C 1.296875 136.722656 0.203125 163.273438 11.023438 196.089844 C 26.457031 242.902344 61.054688 276.15625 105 301.886719 C 148.945313 276.15625 183.542969 242.902344 198.976563 196.089844 C 209.796875 163.273438 208.703125 136.722656 210 87.222656 C 168.894531 72.496094 131.765625 56.289063 105 36.222656 Z M 105 36.222656 "/>
</g>
<path style=" stroke:none;fill-rule:evenodd;fill:rgb(100%,85.9375%,0%);fill-opacity:1;" d="M 105 51.246094 C 83.078125 68.257813 52.667969 82.003906 19 94.496094 L 19 149.496094 L 191 149.496094 L 191 94.496094 C 157.332031 82.003906 126.921875 68.257813 105 51.246094 Z M 105 51.246094 "/>
<path style=" stroke:none;fill-rule:evenodd;fill:rgb(100%,100%,100%);fill-opacity:1;" d="M 96.386719 255.203125 L 96.386719 257.238281 L 88.675781 257.238281 C 88.761719 256.464844 89.011719 255.730469 89.429688 255.039063 C 89.84375 254.347656 90.671875 253.425781 91.898438 252.28125 C 92.890625 251.355469 93.496094 250.730469 93.722656 250.398438 C 94.023438 249.945313 94.175781 249.496094 94.175781 249.050781 C 94.175781 248.558594 94.042969 248.183594 93.78125 247.917969 C 93.519531 247.652344 93.15625 247.523438 92.691406 247.523438 C 92.234375 247.523438 91.871094 247.660156 91.597656 247.941406 C 91.328125 248.214844 91.171875 248.675781 91.128906 249.316406 L 88.933594 249.097656 C 89.066406 247.886719 89.472656 247.015625 90.164063 246.484375 C 90.851563 245.964844 91.710938 245.695313 92.746094 245.695313 C 93.878906 245.695313 94.769531 246.003906 95.417969 246.613281 C 96.0625 247.226563 96.386719 247.988281 96.386719 248.898438 C 96.386719 249.417969 96.292969 249.910156 96.109375 250.378906 C 95.925781 250.847656 95.632813 251.339844 95.226563 251.847656 C 94.964844 252.191406 94.480469 252.679688 93.785156 253.316406 C 93.089844 253.960938 92.648438 254.378906 92.464844 254.589844 C 92.277344 254.796875 92.125 255.003906 92.011719 255.203125 Z M 101.59375 245.695313 C 102.703125 245.695313 103.570313 246.09375 104.199219 246.890625 C 104.945313 247.832031 105.320313 249.394531 105.320313 251.578125 C 105.320313 253.753906 104.941406 255.316406 104.191406 256.265625 C 103.570313 257.050781 102.703125 257.445313 101.59375 257.445313 C 100.476563 257.445313 99.574219 257.015625 98.890625 256.15625 C 98.207031 255.292969 97.863281 253.757813 97.863281 251.550781 C 97.863281 249.386719 98.242188 247.828125 98.992188 246.878906 C 99.613281 246.089844 100.480469 245.695313 101.59375 245.695313 Z M 101.59375 247.523438 C 101.332031 247.523438 101.09375 247.609375 100.890625 247.777344 C 100.6875 247.953125 100.527344 248.253906 100.414063 248.691406 C 100.265625 249.261719 100.191406 250.222656 100.191406 251.578125 C 100.191406 252.925781 100.257813 253.851563 100.390625 254.355469 C 100.523438 254.863281 100.691406 255.203125 100.894531 255.367188 C 101.097656 255.535156 101.332031 255.617188 101.59375 255.617188 C 101.855469 255.617188 102.089844 255.53125 102.292969 255.363281 C 102.496094 255.191406 102.65625 254.886719 102.769531 254.453125 C 102.917969 253.882813 102.996094 252.925781 102.996094 251.578125 C 102.996094 250.222656 102.929688 249.296875 102.792969 248.792969 C 102.660156 248.285156 102.492188 247.953125 102.289063 247.777344 C 102.085938 247.609375 101.855469 247.523438 101.59375 247.523438 Z M 110.507813 245.695313 C 111.617188 245.695313 112.488281 246.09375 113.113281 246.890625 C 113.859375 247.832031 114.234375 249.394531 114.234375 251.578125 C 114.234375 253.753906 113.855469 255.316406 113.105469 256.265625 C 112.484375 257.050781 111.617188 257.445313 110.507813 257.445313 C 109.390625 257.445313 108.492188 257.015625 107.804688 256.15625 C 107.121094 255.292969 106.78125 253.757813 106.78125 251.550781 C 106.78125 249.386719 107.15625 247.828125 107.90625 246.878906 C 108.53125 246.089844 109.394531 245.695313 110.507813 245.695313 Z M 110.507813 247.523438 C 110.246094 247.523438 110.011719 247.609375 109.808594 247.777344 C 109.601563 247.953125 109.441406 248.253906 109.328125 248.691406 C 109.179688 249.261719 109.105469 250.222656 109.105469 251.578125 C 109.105469 252.925781 109.171875 253.851563 109.304688 254.355469 C 109.4375 254.863281 109.605469 255.203125 109.808594 255.367188 C 110.011719 255.535156 110.246094 255.617188 110.507813 255.617188 C 110.769531 255.617188 111.003906 255.53125 111.210938 255.363281 C 111.414063 255.191406 111.574219 254.886719 111.683594 254.453125 C 111.835938 253.882813 111.910156 252.925781 111.910156 251.578125 C 111.910156 250.222656 111.84375 249.296875 111.710938 248.792969 C 111.574219 248.285156 111.40625 247.953125 111.203125 247.777344 C 111 247.609375 110.769531 247.523438 110.507813 247.523438 Z M 121.320313 257.238281 L 119.125 257.238281 L 119.125 248.929688 C 118.324219 249.679688 117.378906 250.238281 116.289063 250.601563 L 116.289063 248.597656 C 116.863281 248.410156 117.484375 248.054688 118.15625 247.527344 C 118.828125 247.003906 119.289063 246.394531 119.539063 245.695313 L 121.320313 245.695313 Z M 121.320313 257.238281 "/>
<path style=" stroke:none;fill-rule:evenodd;fill:rgb(0%,34.910583%,15.281677%);fill-opacity:1;" d="M 105 149.496094 L 123.625 149.496094 L 105 62.246094 Z M 105 149.496094 "/>
<path style=" stroke:none;fill-rule:evenodd;fill:rgb(0%,54.881287%,20.384216%);fill-opacity:1;" d="M 86.375 149.496094 L 105 149.496094 L 105 62.246094 Z M 86.375 149.496094 "/>
<path style=" stroke:none;fill-rule:evenodd;fill:rgb(100%,100%,100%);fill-opacity:1;" d="M 64.859375 190.089844 L 78.855469 190.089844 C 81.59375 190.089844 83.816406 187.722656 83.816406 184.765625 L 83.816406 168.113281 L 77.820313 168.113281 L 77.820313 184.765625 C 77.820313 185.878906 76.984375 186.765625 75.945313 186.765625 L 67.742188 186.765625 C 66.703125 186.765625 65.867188 185.878906 65.867188 184.765625 L 65.867188 168.113281 L 59.871094 168.113281 L 59.871094 184.765625 C 59.871094 187.71875 62.089844 190.089844 64.859375 190.089844 Z M 49.554688 181.527344 L 55.550781 181.527344 L 55.550781 184.765625 C 55.550781 187.71875 53.332031 190.089844 50.5625 190.089844 L 36.859375 190.089844 C 34.09375 190.089844 31.871094 187.722656 31.871094 184.765625 L 31.871094 173.4375 C 31.871094 170.484375 34.09375 168.113281 36.859375 168.113281 L 50.5625 168.113281 C 53.332031 168.113281 55.550781 170.484375 55.550781 173.4375 L 55.550781 177.039063 L 49.558594 177.039063 L 49.554688 175.597656 C 49.554688 174.492188 48.71875 173.566406 47.679688 173.566406 L 39.742188 173.566406 C 38.703125 173.566406 37.867188 174.492188 37.867188 175.597656 L 37.867188 182.964844 C 37.867188 184.074219 38.703125 184.96875 39.742188 184.96875 L 47.679688 184.96875 C 48.71875 184.96875 49.554688 184.074219 49.554688 182.964844 Z M 88.136719 190.089844 L 94.128906 190.089844 L 94.128906 168.113281 L 88.136719 168.113281 Z M 116.132813 190.089844 L 122.128906 190.089844 L 122.128906 173.441406 C 122.128906 170.484375 119.910156 168.113281 117.167969 168.113281 L 103.4375 168.113281 C 100.671875 168.113281 98.449219 170.484375 98.449219 173.441406 L 98.449219 190.089844 L 104.445313 190.089844 L 104.445313 180.765625 L 116.132813 180.765625 Z M 116.132813 177.039063 L 104.445313 177.039063 L 104.445313 174.476563 C 104.445313 173.371094 105.28125 172.445313 106.320313 172.445313 L 114.257813 172.445313 C 115.296875 172.445313 116.132813 173.371094 116.132813 174.476563 Z M 126.449219 190.089844 L 145.167969 190.089844 C 147.90625 190.089844 150.128906 187.722656 150.128906 184.765625 L 150.128906 182.765625 C 150.128906 181.378906 149.636719 180.089844 148.773438 179.101563 C 149.636719 178.117188 150.128906 177.753906 150.128906 176.363281 L 150.128906 173.441406 C 150.128906 170.484375 147.90625 168.113281 145.167969 168.113281 L 126.449219 168.113281 Z M 144.132813 177.039063 L 132.445313 177.039063 L 132.445313 174.476563 C 132.445313 173.371094 133.28125 172.445313 134.320313 172.445313 L 142.257813 172.445313 C 143.296875 172.445313 144.132813 173.371094 144.132813 174.476563 Z M 144.132813 181.171875 L 132.445313 181.171875 L 132.445313 183.726563 C 132.445313 184.839844 133.28125 185.757813 134.320313 185.757813 L 142.257813 185.757813 C 143.296875 185.757813 144.132813 184.839844 144.132813 183.726563 Z M 172.132813 190.089844 L 178.128906 190.089844 L 178.128906 173.441406 C 178.128906 170.484375 175.90625 168.113281 173.167969 168.113281 L 159.4375 168.113281 C 156.667969 168.113281 154.449219 170.484375 154.449219 173.441406 L 154.449219 190.089844 L 160.445313 190.089844 L 160.445313 180.765625 L 172.132813 180.765625 Z M 172.132813 177.039063 L 160.445313 177.039063 L 160.445313 174.476563 C 160.445313 173.371094 161.28125 172.445313 162.316406 172.445313 L 170.257813 172.445313 C 171.296875 172.445313 172.132813 173.371094 172.132813 174.476563 Z M 165.972656 166.527344 L 170.328125 159.546875 L 166.605469 159.546875 L 162.25 166.527344 Z M 165.972656 166.527344 "/>
<path style=" stroke:none;fill-rule:evenodd;fill:rgb(100%,85.9375%,0%);fill-opacity:1;" d="M 34.828125 205.425781 L 41.851563 205.425781 L 41.851563 204.136719 L 34.828125 204.136719 C 34.453125 204.136719 34.152344 203.789063 34.152344 203.359375 L 34.152344 201.808594 L 41.851563 201.808594 L 41.851563 200.519531 L 34.152344 200.519531 L 34.152344 198.96875 C 34.152344 198.539063 34.453125 198.183594 34.828125 198.183594 L 41.851563 198.183594 L 41.851563 196.90625 L 34.828125 196.90625 C 33.828125 196.90625 33.023438 197.824219 33.023438 198.96875 L 33.023438 203.359375 C 33.023438 204.503906 33.828125 205.425781 34.828125 205.425781 Z M 45.277344 205.425781 L 52.296875 205.425781 C 53.285156 205.425781 54.089844 204.503906 54.089844 203.359375 L 54.089844 202.589844 C 54.089844 201.453125 53.285156 200.519531 52.296875 200.519531 L 46.832031 200.519531 C 46.453125 200.519531 46.152344 200.175781 46.152344 199.746094 L 46.152344 198.96875 C 46.152344 198.539063 46.453125 198.183594 46.832031 198.183594 L 53.851563 198.183594 L 53.851563 196.90625 L 46.832031 196.90625 C 45.828125 196.90625 45.027344 197.824219 45.027344 198.96875 L 45.027344 199.746094 C 45.027344 200.878906 45.828125 201.808594 46.832031 201.808594 L 52.296875 201.808594 C 52.671875 201.808594 52.972656 202.15625 52.972656 202.589844 L 52.972656 203.359375 C 52.972656 203.789063 52.671875 204.136719 52.296875 204.136719 L 45.277344 204.136719 Z M 57.265625 205.425781 L 58.394531 205.425781 L 58.394531 198.183594 L 64.535156 198.183594 C 64.914063 198.183594 65.214844 198.539063 65.214844 198.96875 L 65.214844 199.746094 C 65.214844 200.175781 64.914063 200.519531 64.535156 200.519531 L 58.882813 200.519531 L 58.882813 201.808594 L 64.535156 201.808594 C 65.527344 201.808594 66.332031 200.878906 66.332031 199.746094 L 66.332031 198.96875 C 66.332031 197.824219 65.527344 196.90625 64.535156 196.90625 L 57.265625 196.90625 Z M 71.3125 205.425781 L 76.777344 205.425781 C 77.769531 205.425781 78.570313 204.503906 78.570313 203.359375 L 78.570313 198.96875 C 78.570313 197.824219 77.769531 196.90625 76.777344 196.90625 L 71.3125 196.90625 C 70.308594 196.90625 69.507813 197.824219 69.507813 198.96875 L 69.507813 203.359375 C 69.507813 204.503906 70.308594 205.425781 71.3125 205.425781 Z M 71.3125 198.183594 L 76.777344 198.183594 C 77.152344 198.183594 77.457031 198.539063 77.457031 198.96875 L 77.457031 203.359375 C 77.457031 203.789063 77.152344 204.136719 76.777344 204.136719 L 71.3125 204.136719 C 70.9375 204.136719 70.632813 203.789063 70.632813 203.359375 L 70.632813 198.96875 C 70.632813 198.539063 70.9375 198.183594 71.3125 198.183594 Z M 89.695313 205.425781 L 90.8125 205.425781 L 90.8125 202.589844 C 90.8125 202.046875 90.632813 201.546875 90.320313 201.164063 C 90.632813 200.78125 90.8125 200.28125 90.8125 199.746094 L 90.8125 198.96875 C 90.8125 197.824219 90.007813 196.90625 89.019531 196.90625 L 81.746094 196.90625 L 81.746094 205.425781 L 82.875 205.425781 L 82.875 198.183594 L 89.019531 198.183594 C 89.394531 198.183594 89.695313 198.539063 89.695313 198.96875 L 89.695313 199.746094 C 89.695313 200.175781 89.394531 200.519531 89.019531 200.519531 L 83.363281 200.519531 L 83.363281 201.808594 L 89.019531 201.808594 C 89.394531 201.808594 89.695313 202.15625 89.695313 202.589844 Z M 97.960938 205.425781 L 99.089844 205.425781 L 99.089844 198.183594 L 103.050781 198.183594 L 103.050781 196.90625 L 93.988281 196.90625 L 93.988281 198.183594 L 97.960938 198.183594 Z M 108.03125 205.425781 L 115.054688 205.425781 L 115.054688 204.136719 L 108.03125 204.136719 C 107.65625 204.136719 107.355469 203.789063 107.355469 203.359375 L 107.355469 201.808594 L 115.054688 201.808594 L 115.054688 200.519531 L 107.355469 200.519531 L 107.355469 198.96875 C 107.355469 198.539063 107.65625 198.183594 108.03125 198.183594 L 115.054688 198.183594 L 115.054688 196.90625 L 108.03125 196.90625 C 107.03125 196.90625 106.226563 197.824219 106.226563 198.96875 L 106.226563 203.359375 C 106.226563 204.503906 107.03125 205.425781 108.03125 205.425781 Z M 122.804688 205.425781 L 129.824219 205.425781 L 129.824219 204.136719 L 122.804688 204.136719 C 122.425781 204.136719 122.125 203.789063 122.125 203.359375 L 122.125 198.96875 C 122.125 198.539063 122.425781 198.183594 122.804688 198.183594 L 129.824219 198.183594 L 129.824219 196.90625 L 122.804688 196.90625 C 121.800781 196.90625 121 197.824219 121 198.96875 L 121 203.359375 C 121 204.503906 121.800781 205.425781 122.804688 205.425781 Z M 134.804688 205.425781 L 141.332031 205.425781 L 141.332031 204.136719 L 134.804688 204.136719 C 134.429688 204.136719 134.125 203.789063 134.125 203.359375 L 134.125 196.90625 L 133 196.90625 L 133 203.359375 C 133 204.503906 133.800781 205.425781 134.804688 205.425781 Z M 146.628906 205.425781 L 152.09375 205.425781 C 153.082031 205.425781 153.886719 204.503906 153.886719 203.359375 L 153.886719 196.90625 L 152.769531 196.90625 L 152.769531 203.359375 C 152.769531 203.789063 152.46875 204.136719 152.09375 204.136719 L 146.628906 204.136719 C 146.25 204.136719 145.949219 203.789063 145.949219 203.359375 L 145.949219 196.90625 L 144.824219 196.90625 L 144.824219 203.359375 C 144.824219 204.503906 145.625 205.425781 146.628906 205.425781 Z M 157.0625 205.425781 L 164.332031 205.425781 C 165.324219 205.425781 166.128906 204.503906 166.128906 203.359375 L 166.128906 202.589844 C 166.128906 202.046875 165.949219 201.546875 165.636719 201.164063 C 165.949219 200.78125 166.128906 200.640625 166.128906 200.101563 L 166.128906 198.96875 C 166.128906 197.824219 165.324219 196.90625 164.332031 196.90625 L 157.0625 196.90625 Z M 164.332031 204.136719 L 158.191406 204.136719 L 158.191406 198.183594 L 164.332031 198.183594 C 164.710938 198.183594 165.011719 198.539063 165.011719 198.96875 L 165.011719 200.101563 C 165.011719 200.53125 164.710938 200.519531 164.332031 200.519531 L 158.679688 200.519531 L 158.679688 201.808594 L 164.332031 201.808594 C 164.710938 201.808594 165.011719 202.15625 165.011719 202.589844 L 165.011719 203.359375 C 165.011719 203.789063 164.710938 204.136719 164.332031 204.136719 Z M 171.109375 205.425781 L 178.128906 205.425781 L 178.128906 204.136719 L 171.109375 204.136719 C 170.734375 204.136719 170.429688 203.789063 170.429688 203.359375 L 170.429688 201.808594 L 178.128906 201.808594 L 178.128906 200.519531 L 170.429688 200.519531 L 170.429688 198.96875 C 170.429688 198.539063 170.734375 198.183594 171.109375 198.183594 L 178.128906 198.183594 L 178.128906 196.90625 L 171.109375 196.90625 C 170.105469 196.90625 169.304688 197.824219 169.304688 198.96875 L 169.304688 203.359375 C 169.304688 204.503906 170.105469 205.425781 171.109375 205.425781 Z M 171.109375 205.425781 "/>
<path style=" stroke:none;fill-rule:evenodd;fill:rgb(100%,85.9375%,0%);fill-opacity:1;" d="M 34.828125 205.070313 L 41.496094 205.070313 L 41.496094 204.488281 L 34.828125 204.488281 C 34.535156 204.488281 34.273438 204.355469 34.085938 204.140625 C 33.90625 203.9375 33.796875 203.664063 33.796875 203.359375 L 33.796875 201.453125 L 41.496094 201.453125 L 41.496094 200.878906 L 33.796875 200.878906 L 33.796875 198.96875 C 33.796875 198.671875 33.90625 198.386719 34.082031 198.183594 C 34.269531 197.964844 34.535156 197.828125 34.828125 197.828125 L 41.496094 197.828125 L 41.496094 197.261719 L 34.828125 197.261719 C 34.4375 197.261719 34.078125 197.445313 33.816406 197.742188 C 33.546875 198.050781 33.378906 198.484375 33.378906 198.96875 L 33.378906 203.359375 C 33.378906 203.84375 33.546875 204.277344 33.816406 204.589844 C 34.078125 204.886719 34.4375 205.070313 34.828125 205.070313 Z M 41.851563 205.777344 L 34.828125 205.777344 C 34.222656 205.777344 33.679688 205.503906 33.285156 205.054688 C 32.90625 204.617188 32.671875 204.019531 32.671875 203.359375 L 32.671875 198.96875 C 32.671875 198.308594 32.90625 197.714844 33.285156 197.277344 C 33.679688 196.828125 34.222656 196.550781 34.828125 196.550781 L 42.203125 196.550781 L 42.203125 198.535156 L 34.828125 198.535156 C 34.75 198.535156 34.675781 198.578125 34.621094 198.644531 C 34.550781 198.726563 34.507813 198.839844 34.507813 198.96875 L 34.507813 200.171875 L 42.203125 200.171875 L 42.203125 202.164063 L 34.507813 202.164063 L 34.507813 203.359375 C 34.507813 203.488281 34.546875 203.597656 34.617188 203.675781 C 34.671875 203.742188 34.75 203.78125 34.828125 203.78125 L 42.203125 203.78125 L 42.203125 205.777344 Z M 45.628906 205.070313 L 52.296875 205.070313 C 52.6875 205.070313 53.039063 204.886719 53.300781 204.589844 C 53.570313 204.277344 53.734375 203.84375 53.734375 203.359375 L 53.734375 202.589844 C 53.734375 202.105469 53.566406 201.671875 53.296875 201.355469 C 53.039063 201.058594 52.683594 200.878906 52.296875 200.878906 L 46.832031 200.878906 C 46.535156 200.878906 46.273438 200.742188 46.085938 200.527344 C 45.90625 200.324219 45.796875 200.046875 45.796875 199.746094 L 45.796875 198.96875 C 45.796875 198.671875 45.90625 198.386719 46.082031 198.183594 C 46.273438 197.964844 46.535156 197.828125 46.832031 197.828125 L 53.496094 197.828125 L 53.496094 197.261719 L 46.832031 197.261719 C 46.4375 197.261719 46.078125 197.445313 45.820313 197.742188 C 45.546875 198.050781 45.378906 198.484375 45.378906 198.96875 L 45.378906 199.746094 C 45.378906 200.226563 45.546875 200.660156 45.820313 200.972656 C 46.082031 201.269531 46.4375 201.453125 46.832031 201.453125 L 52.296875 201.453125 C 52.589844 201.453125 52.855469 201.589844 53.042969 201.804688 C 53.21875 202.007813 53.328125 202.28125 53.328125 202.589844 L 53.328125 203.359375 C 53.328125 203.664063 53.21875 203.9375 53.042969 204.140625 C 52.855469 204.355469 52.589844 204.488281 52.296875 204.488281 L 45.628906 204.488281 Z M 52.296875 205.777344 L 44.921875 205.777344 L 44.921875 203.78125 L 52.296875 203.78125 C 52.378906 203.78125 52.453125 203.742188 52.511719 203.675781 C 52.578125 203.597656 52.621094 203.488281 52.621094 203.359375 L 52.621094 202.589844 C 52.621094 202.460938 52.578125 202.347656 52.511719 202.269531 C 52.453125 202.207031 52.378906 202.164063 52.296875 202.164063 L 46.832031 202.164063 C 46.226563 202.164063 45.679688 201.886719 45.289063 201.4375 C 44.90625 201.003906 44.671875 200.402344 44.671875 199.746094 L 44.671875 198.96875 C 44.671875 198.308594 44.90625 197.714844 45.285156 197.277344 C 45.679688 196.828125 46.222656 196.550781 46.832031 196.550781 L 54.203125 196.550781 L 54.203125 198.535156 L 46.832031 198.535156 C 46.75 198.535156 46.675781 198.578125 46.621094 198.644531 C 46.550781 198.726563 46.507813 198.839844 46.507813 198.96875 L 46.507813 199.746094 C 46.507813 199.871094 46.546875 199.984375 46.617188 200.0625 C 46.671875 200.128906 46.75 200.171875 46.832031 200.171875 L 52.296875 200.171875 C 52.898438 200.171875 53.441406 200.445313 53.832031 200.894531 C 54.210938 201.335938 54.445313 201.929688 54.445313 202.589844 L 54.445313 203.359375 C 54.445313 204.019531 54.210938 204.617188 53.832031 205.050781 C 53.441406 205.503906 52.898438 205.777344 52.296875 205.777344 Z M 57.621094 205.070313 L 58.039063 205.070313 L 58.039063 197.828125 L 64.535156 197.828125 C 64.832031 197.828125 65.09375 197.964844 65.285156 198.183594 C 65.460938 198.386719 65.570313 198.671875 65.570313 198.96875 L 65.570313 199.746094 C 65.570313 200.046875 65.460938 200.324219 65.28125 200.527344 C 65.09375 200.742188 64.832031 200.878906 64.535156 200.878906 L 59.238281 200.878906 L 59.238281 201.453125 L 64.535156 201.453125 C 64.925781 201.453125 65.277344 201.269531 65.535156 200.972656 C 65.808594 200.660156 65.976563 200.226563 65.976563 199.746094 L 65.976563 198.96875 C 65.976563 198.484375 65.808594 198.050781 65.539063 197.742188 C 65.28125 197.445313 64.925781 197.261719 64.535156 197.261719 L 57.621094 197.261719 Z M 58.394531 205.777344 L 56.910156 205.777344 L 56.910156 196.550781 L 64.535156 196.550781 C 65.140625 196.550781 65.683594 196.828125 66.074219 197.277344 C 66.453125 197.714844 66.683594 198.3125 66.683594 198.96875 L 66.683594 199.746094 C 66.683594 200.398438 66.449219 201.003906 66.070313 201.433594 C 65.679688 201.882813 65.136719 202.164063 64.535156 202.164063 L 58.746094 202.164063 L 58.746094 205.777344 Z M 58.746094 198.535156 L 58.746094 200.171875 L 64.535156 200.171875 C 64.617188 200.171875 64.695313 200.128906 64.75 200.0625 C 64.816406 199.984375 64.859375 199.871094 64.859375 199.746094 L 64.859375 198.96875 C 64.859375 198.839844 64.816406 198.726563 64.746094 198.644531 C 64.691406 198.578125 64.617188 198.535156 64.535156 198.535156 Z M 71.3125 205.070313 L 76.777344 205.070313 C 77.167969 205.070313 77.523438 204.886719 77.78125 204.589844 C 78.050781 204.277344 78.21875 203.84375 78.21875 203.359375 L 78.21875 198.96875 C 78.21875 198.484375 78.050781 198.050781 77.78125 197.742188 C 77.523438 197.445313 77.167969 197.261719 76.777344 197.261719 L 71.3125 197.261719 C 70.917969 197.261719 70.558594 197.445313 70.300781 197.742188 C 70.027344 198.050781 69.859375 198.484375 69.859375 198.96875 L 69.859375 203.359375 C 69.859375 203.84375 70.027344 204.277344 70.300781 204.589844 C 70.558594 204.886719 70.917969 205.070313 71.3125 205.070313 Z M 76.777344 205.777344 L 71.3125 205.777344 C 70.703125 205.777344 70.160156 205.503906 69.769531 205.054688 C 69.386719 204.617188 69.152344 204.019531 69.152344 203.359375 L 69.152344 198.96875 C 69.152344 198.308594 69.386719 197.714844 69.769531 197.277344 C 70.160156 196.828125 70.703125 196.550781 71.3125 196.550781 L 76.777344 196.550781 C 77.378906 196.550781 77.921875 196.828125 78.3125 197.277344 C 78.691406 197.714844 78.925781 198.3125 78.925781 198.96875 L 78.925781 203.359375 C 78.925781 204.019531 78.691406 204.617188 78.3125 205.050781 C 77.921875 205.503906 77.378906 205.777344 76.777344 205.777344 Z M 71.3125 197.828125 L 76.777344 197.828125 C 77.070313 197.828125 77.335938 197.964844 77.523438 198.183594 C 77.699219 198.386719 77.808594 198.671875 77.808594 198.96875 L 77.808594 203.359375 C 77.808594 203.664063 77.699219 203.9375 77.523438 204.140625 C 77.335938 204.355469 77.070313 204.488281 76.777344 204.488281 L 71.3125 204.488281 C 71.019531 204.488281 70.753906 204.355469 70.566406 204.140625 C 70.390625 203.9375 70.277344 203.660156 70.277344 203.359375 L 70.277344 198.96875 C 70.277344 198.671875 70.386719 198.386719 70.5625 198.183594 C 70.753906 197.964844 71.015625 197.828125 71.3125 197.828125 Z M 76.777344 198.535156 L 71.3125 198.535156 C 71.230469 198.535156 71.15625 198.578125 71.101563 198.644531 C 71.03125 198.726563 70.988281 198.839844 70.988281 198.96875 L 70.988281 203.359375 C 70.988281 203.488281 71.03125 203.597656 71.097656 203.675781 C 71.152344 203.742188 71.230469 203.78125 71.3125 203.78125 L 76.777344 203.78125 C 76.859375 203.78125 76.933594 203.742188 76.992188 203.675781 C 77.058594 203.597656 77.101563 203.488281 77.101563 203.359375 L 77.101563 198.96875 C 77.101563 198.839844 77.058594 198.726563 76.988281 198.644531 C 76.929688 198.578125 76.855469 198.535156 76.777344 198.535156 Z M 90.050781 205.070313 L 90.457031 205.070313 L 90.457031 202.589844 C 90.457031 202.355469 90.421875 202.136719 90.351563 201.9375 C 90.28125 201.734375 90.179688 201.546875 90.046875 201.390625 L 89.863281 201.164063 L 90.046875 200.941406 C 90.179688 200.78125 90.28125 200.59375 90.351563 200.394531 C 90.421875 200.195313 90.457031 199.976563 90.457031 199.746094 L 90.457031 198.96875 C 90.457031 198.484375 90.289063 198.050781 90.019531 197.742188 C 89.761719 197.445313 89.40625 197.261719 89.019531 197.261719 L 82.101563 197.261719 L 82.101563 205.070313 L 82.519531 205.070313 L 82.519531 197.828125 L 89.019531 197.828125 C 89.3125 197.828125 89.578125 197.964844 89.765625 198.183594 C 89.941406 198.386719 90.050781 198.671875 90.050781 198.96875 L 90.050781 199.746094 C 90.050781 200.046875 89.941406 200.324219 89.761719 200.527344 C 89.574219 200.742188 89.3125 200.878906 89.019531 200.878906 L 83.71875 200.878906 L 83.71875 201.453125 L 89.019531 201.453125 C 89.3125 201.453125 89.574219 201.589844 89.761719 201.804688 C 89.941406 202.007813 90.050781 202.28125 90.050781 202.589844 Z M 90.8125 205.777344 L 89.339844 205.777344 L 89.339844 202.589844 C 89.339844 202.460938 89.300781 202.34375 89.230469 202.269531 C 89.175781 202.207031 89.097656 202.164063 89.019531 202.164063 L 83.226563 202.164063 L 83.226563 205.777344 L 81.394531 205.777344 L 81.394531 196.550781 L 89.019531 196.550781 C 89.621094 196.550781 90.164063 196.828125 90.554688 197.277344 C 90.933594 197.714844 91.167969 198.3125 91.167969 198.96875 L 91.167969 199.746094 C 91.167969 200.046875 91.113281 200.347656 91.019531 200.628906 C 90.953125 200.816406 90.867188 200.996094 90.757813 201.164063 C 90.867188 201.335938 90.953125 201.515625 91.019531 201.710938 C 91.113281 201.984375 91.167969 202.28125 91.167969 202.589844 L 91.167969 205.777344 Z M 83.226563 198.535156 L 83.226563 200.171875 L 89.019531 200.171875 C 89.097656 200.171875 89.175781 200.128906 89.230469 200.0625 C 89.300781 199.984375 89.339844 199.871094 89.339844 199.746094 L 89.339844 198.96875 C 89.339844 198.839844 89.296875 198.726563 89.226563 198.644531 C 89.171875 198.578125 89.097656 198.535156 89.019531 198.535156 Z M 98.316406 205.070313 L 98.734375 205.070313 L 98.734375 197.828125 L 102.699219 197.828125 L 102.699219 197.261719 L 94.34375 197.261719 L 94.34375 197.828125 L 98.316406 197.828125 Z M 99.089844 205.777344 L 97.609375 205.777344 L 97.609375 198.535156 L 93.632813 198.535156 L 93.632813 196.550781 L 103.40625 196.550781 L 103.40625 198.535156 L 99.441406 198.535156 L 99.441406 205.777344 Z M 108.03125 205.070313 L 114.699219 205.070313 L 114.699219 204.488281 L 108.03125 204.488281 C 107.738281 204.488281 107.476563 204.355469 107.289063 204.140625 C 107.109375 203.9375 107 203.664063 107 203.359375 L 107 201.453125 L 114.699219 201.453125 L 114.699219 200.878906 L 107 200.878906 L 107 198.96875 C 107 198.671875 107.109375 198.386719 107.285156 198.183594 C 107.472656 197.964844 107.738281 197.828125 108.03125 197.828125 L 114.699219 197.828125 L 114.699219 197.261719 L 108.03125 197.261719 C 107.640625 197.261719 107.28125 197.445313 107.019531 197.742188 C 106.75 198.050781 106.582031 198.484375 106.582031 198.96875 L 106.582031 203.359375 C 106.582031 203.84375 106.75 204.277344 107.019531 204.589844 C 107.28125 204.886719 107.640625 205.070313 108.03125 205.070313 Z M 115.054688 205.777344 L 108.03125 205.777344 C 107.425781 205.777344 106.882813 205.503906 106.488281 205.054688 C 106.109375 204.617188 105.875 204.019531 105.875 203.359375 L 105.875 198.96875 C 105.875 198.308594 106.109375 197.714844 106.488281 197.277344 C 106.882813 196.828125 107.425781 196.550781 108.03125 196.550781 L 115.40625 196.550781 L 115.40625 198.535156 L 108.03125 198.535156 C 107.953125 198.535156 107.878906 198.578125 107.824219 198.644531 C 107.753906 198.726563 107.710938 198.839844 107.710938 198.96875 L 107.710938 200.171875 L 115.40625 200.171875 L 115.40625 202.164063 L 107.710938 202.164063 L 107.710938 203.359375 C 107.710938 203.488281 107.75 203.597656 107.820313 203.675781 C 107.875 203.742188 107.953125 203.78125 108.03125 203.78125 L 115.40625 203.78125 L 115.40625 205.777344 Z M 122.804688 205.070313 L 129.46875 205.070313 L 129.46875 204.488281 L 122.804688 204.488281 C 122.507813 204.488281 122.246094 204.355469 122.058594 204.140625 C 121.878906 203.9375 121.769531 203.660156 121.769531 203.359375 L 121.769531 198.96875 C 121.769531 198.671875 121.878906 198.386719 122.054688 198.183594 C 122.246094 197.964844 122.507813 197.828125 122.804688 197.828125 L 129.46875 197.828125 L 129.46875 197.261719 L 122.804688 197.261719 C 122.410156 197.261719 122.050781 197.445313 121.789063 197.742188 C 121.519531 198.050781 121.351563 198.484375 121.351563 198.96875 L 121.351563 203.359375 C 121.351563 203.84375 121.519531 204.277344 121.789063 204.589844 C 122.050781 204.886719 122.410156 205.070313 122.804688 205.070313 Z M 129.824219 205.777344 L 122.804688 205.777344 C 122.195313 205.777344 121.652344 205.503906 121.257813 205.054688 C 120.878906 204.617188 120.644531 204.019531 120.644531 203.359375 L 120.644531 198.96875 C 120.644531 198.308594 120.878906 197.714844 121.257813 197.277344 C 121.652344 196.828125 122.195313 196.550781 122.804688 196.550781 L 130.175781 196.550781 L 130.175781 198.535156 L 122.804688 198.535156 C 122.722656 198.535156 122.648438 198.578125 122.59375 198.644531 C 122.523438 198.726563 122.480469 198.839844 122.480469 198.96875 L 122.480469 203.359375 C 122.480469 203.488281 122.523438 203.597656 122.589844 203.675781 C 122.644531 203.742188 122.722656 203.78125 122.804688 203.78125 L 130.175781 203.78125 L 130.175781 205.777344 Z M 134.804688 205.070313 L 140.980469 205.070313 L 140.980469 204.488281 L 134.804688 204.488281 C 134.511719 204.488281 134.246094 204.355469 134.058594 204.140625 C 133.882813 203.9375 133.769531 203.664063 133.769531 203.359375 L 133.769531 197.261719 L 133.351563 197.261719 L 133.351563 203.359375 C 133.351563 203.84375 133.519531 204.277344 133.792969 204.589844 C 134.050781 204.886719 134.410156 205.070313 134.804688 205.070313 Z M 141.332031 205.777344 L 134.804688 205.777344 C 134.195313 205.777344 133.652344 205.503906 133.261719 205.054688 C 132.878906 204.617188 132.644531 204.019531 132.644531 203.359375 L 132.644531 196.550781 L 134.480469 196.550781 L 134.480469 203.359375 C 134.480469 203.488281 134.523438 203.597656 134.589844 203.675781 C 134.644531 203.742188 134.722656 203.78125 134.804688 203.78125 L 141.6875 203.78125 L 141.6875 205.777344 Z M 146.628906 205.070313 L 152.09375 205.070313 C 152.480469 205.070313 152.835938 204.886719 153.09375 204.589844 C 153.367188 204.277344 153.53125 203.84375 153.53125 203.359375 L 153.53125 197.261719 L 153.125 197.261719 L 153.125 203.359375 C 153.125 203.664063 153.015625 203.9375 152.839844 204.140625 C 152.648438 204.355469 152.386719 204.488281 152.09375 204.488281 L 146.628906 204.488281 C 146.332031 204.488281 146.070313 204.355469 145.882813 204.140625 C 145.703125 203.9375 145.59375 203.664063 145.59375 203.359375 L 145.59375 197.261719 L 145.175781 197.261719 L 145.175781 203.359375 C 145.175781 203.84375 145.34375 204.277344 145.613281 204.589844 C 145.875 204.886719 146.234375 205.070313 146.628906 205.070313 Z M 152.09375 205.777344 L 146.628906 205.777344 C 146.019531 205.777344 145.476563 205.503906 145.082031 205.054688 C 144.703125 204.617188 144.46875 204.019531 144.46875 203.359375 L 144.46875 196.550781 L 146.304688 196.550781 L 146.304688 203.359375 C 146.304688 203.488281 146.34375 203.597656 146.414063 203.675781 C 146.46875 203.742188 146.546875 203.78125 146.628906 203.78125 L 152.09375 203.78125 C 152.175781 203.78125 152.25 203.742188 152.308594 203.675781 C 152.375 203.597656 152.417969 203.488281 152.417969 203.359375 L 152.417969 196.550781 L 154.242188 196.550781 L 154.242188 203.359375 C 154.242188 204.019531 154.007813 204.617188 153.628906 205.050781 C 153.238281 205.503906 152.695313 205.777344 152.09375 205.777344 Z M 157.417969 205.070313 L 164.332031 205.070313 C 164.722656 205.070313 165.078125 204.886719 165.335938 204.589844 C 165.605469 204.277344 165.773438 203.84375 165.773438 203.359375 L 165.773438 202.589844 C 165.773438 202.359375 165.734375 202.136719 165.667969 201.9375 L 165.667969 201.933594 C 165.597656 201.734375 165.496094 201.550781 165.363281 201.390625 L 165.179688 201.164063 L 165.363281 200.9375 L 165.464844 200.816406 C 165.664063 200.585938 165.773438 200.453125 165.773438 200.101563 L 165.773438 198.96875 C 165.773438 198.484375 165.605469 198.050781 165.335938 197.742188 C 165.078125 197.445313 164.722656 197.261719 164.332031 197.261719 L 157.417969 197.261719 Z M 164.332031 205.777344 L 156.707031 205.777344 L 156.707031 196.550781 L 164.332031 196.550781 C 164.9375 196.550781 165.480469 196.828125 165.871094 197.277344 C 166.246094 197.714844 166.480469 198.3125 166.480469 198.96875 L 166.480469 200.101563 C 166.480469 200.65625 166.339844 200.871094 166.085938 201.179688 C 166.1875 201.34375 166.269531 201.519531 166.335938 201.710938 C 166.429688 201.980469 166.480469 202.277344 166.480469 202.589844 L 166.480469 203.359375 C 166.480469 204.019531 166.246094 204.617188 165.871094 205.050781 C 165.480469 205.503906 164.933594 205.777344 164.332031 205.777344 Z M 164.332031 204.488281 L 157.835938 204.488281 L 157.835938 197.828125 L 164.332031 197.828125 C 164.628906 197.828125 164.890625 197.964844 165.082031 198.183594 C 165.257813 198.386719 165.367188 198.671875 165.367188 198.96875 L 165.367188 200.101563 C 165.367188 200.878906 164.921875 200.878906 164.363281 200.878906 L 159.035156 200.878906 L 159.035156 201.453125 L 164.332031 201.453125 C 164.628906 201.453125 164.890625 201.589844 165.078125 201.804688 C 165.257813 202.003906 165.367188 202.28125 165.367188 202.589844 L 165.367188 203.359375 C 165.367188 203.660156 165.257813 203.9375 165.078125 204.140625 C 164.890625 204.355469 164.628906 204.488281 164.332031 204.488281 Z M 158.542969 203.78125 L 164.332031 203.78125 C 164.414063 203.78125 164.492188 203.742188 164.546875 203.675781 C 164.613281 203.597656 164.65625 203.488281 164.65625 203.359375 L 164.65625 202.589844 C 164.65625 202.460938 164.613281 202.34375 164.546875 202.269531 C 164.492188 202.207031 164.414063 202.164063 164.332031 202.164063 L 158.542969 202.164063 Z M 158.542969 198.535156 L 158.542969 200.171875 L 164.363281 200.171875 C 164.527344 200.171875 164.65625 200.171875 164.65625 200.101563 L 164.65625 198.96875 C 164.65625 198.839844 164.613281 198.722656 164.542969 198.644531 C 164.488281 198.578125 164.414063 198.535156 164.332031 198.535156 Z M 171.109375 205.070313 L 177.773438 205.070313 L 177.773438 204.488281 L 171.109375 204.488281 C 170.816406 204.488281 170.550781 204.355469 170.363281 204.140625 C 170.183594 203.9375 170.074219 203.664063 170.074219 203.359375 L 170.074219 201.453125 L 177.773438 201.453125 L 177.773438 200.878906 L 170.074219 200.878906 L 170.074219 198.96875 C 170.074219 198.671875 170.183594 198.386719 170.359375 198.183594 C 170.550781 197.964844 170.8125 197.828125 171.109375 197.828125 L 177.773438 197.828125 L 177.773438 197.261719 L 171.109375 197.261719 C 170.714844 197.261719 170.355469 197.445313 170.097656 197.742188 C 169.824219 198.050781 169.65625 198.484375 169.65625 198.96875 L 169.65625 203.359375 C 169.65625 203.84375 169.824219 204.277344 170.097656 204.589844 C 170.355469 204.886719 170.714844 205.070313 171.109375 205.070313 Z M 178.128906 205.777344 L 171.109375 205.777344 C 170.5 205.777344 169.957031 205.503906 169.5625 205.054688 C 169.183594 204.617188 168.949219 204.019531 168.949219 203.359375 L 168.949219 198.96875 C 168.949219 198.308594 169.183594 197.714844 169.5625 197.277344 C 169.957031 196.828125 170.5 196.550781 171.109375 196.550781 L 178.484375 196.550781 L 178.484375 198.535156 L 171.109375 198.535156 C 171.027344 198.535156 170.953125 198.578125 170.898438 198.644531 C 170.828125 198.726563 170.785156 198.839844 170.785156 198.96875 L 170.785156 200.171875 L 178.484375 200.171875 L 178.484375 202.164063 L 170.785156 202.164063 L 170.785156 203.359375 C 170.785156 203.488281 170.828125 203.597656 170.894531 203.675781 C 170.949219 203.742188 171.027344 203.78125 171.109375 203.78125 L 178.484375 203.78125 L 178.484375 205.777344 Z M 178.128906 205.777344 "/>
<path style=" stroke:none;fill-rule:evenodd;fill:rgb(100%,85.9375%,0%);fill-opacity:1;" d="M 61.0625 22.589844 L 63.632813 30.550781 L 72.007813 30.535156 L 65.222656 35.445313 L 67.828125 43.402344 L 61.0625 38.46875 L 54.300781 43.402344 L 56.902344 35.445313 L 50.121094 30.535156 L 58.492188 30.550781 Z M 148.9375 22.589844 L 151.507813 30.550781 L 159.878906 30.535156 L 153.097656 35.445313 L 155.699219 43.402344 L 148.9375 38.46875 L 142.171875 43.402344 L 144.777344 35.445313 L 137.992188 30.535156 L 146.367188 30.550781 Z M 105 -0.0898438 L 107.570313 7.878906 L 115.941406 7.859375 L 109.160156 12.765625 L 111.761719 20.722656 L 105 15.789063 L 98.238281 20.722656 L 100.839844 12.765625 L 94.058594 7.859375 L 102.429688 7.878906 Z M 105 -0.0898438 "/>
</g>
</svg>
